<svg width="131" height="35" viewBox="0 0 131 35" fill="none" xmlns="http://www.w3.org/2000/svg">
<rect width="131" height="35" fill="#E5E5E5"/>
<g clip-path="url(#clip0_0_1)">
<rect width="1673" height="1024" transform="translate(-1452 -12)" fill="#F5F5F5"/>
<g filter="url(#filter0_d_0_1)">
<rect x="-1219" y="-12" width="1440" height="60" fill="white"/>
</g>
<rect width="131" height="35" rx="17.5" fill="#F5F5F5"/>
<g filter="url(#filter1_d_0_1)">
<rect x="3" y="2" width="30" height="30" rx="15" fill="#202020"/>
</g>
<path d="M50.2592 24V22.5682L54.6889 17.9787C55.1619 17.4801 55.5518 17.0433 55.8587 16.6683C56.1697 16.2891 56.402 15.929 56.5554 15.5881C56.7088 15.2472 56.7855 14.8849 56.7855 14.5014C56.7855 14.0668 56.6832 13.6918 56.4787 13.3764C56.2741 13.0568 55.995 12.8118 55.6413 12.6413C55.2876 12.4666 54.8892 12.3793 54.446 12.3793C53.9773 12.3793 53.5682 12.4751 53.2188 12.6669C52.8693 12.8587 52.6009 13.1293 52.4134 13.4787C52.2259 13.8281 52.1321 14.2372 52.1321 14.706H50.2464C50.2464 13.9091 50.4297 13.2124 50.7962 12.6158C51.1626 12.0192 51.6655 11.5568 52.3047 11.2287C52.9439 10.8963 53.6705 10.7301 54.4844 10.7301C55.3068 10.7301 56.0313 10.8942 56.6577 11.2223C57.2884 11.5462 57.7805 11.9893 58.1342 12.5518C58.4879 13.1101 58.6648 13.7408 58.6648 14.4439C58.6648 14.9297 58.5732 15.4048 58.3899 15.8693C58.2109 16.3338 57.8977 16.8516 57.4503 17.4226C57.0028 17.9893 56.3807 18.6776 55.5838 19.4872L52.9822 22.2102V22.3061H58.8757V24H50.2592ZM62.5831 22.3764C62.2337 22.3764 61.9332 22.2528 61.6818 22.0057C61.4304 21.7543 61.3047 21.4517 61.3047 21.098C61.3047 20.7486 61.4304 20.4503 61.6818 20.2031C61.9332 19.9517 62.2337 19.826 62.5831 19.826C62.9325 19.826 63.233 19.9517 63.4844 20.2031C63.7358 20.4503 63.8615 20.7486 63.8615 21.098C63.8615 21.3324 63.8018 21.5476 63.6825 21.7436C63.5675 21.9354 63.4141 22.0888 63.2223 22.2038C63.0305 22.3189 62.8175 22.3764 62.5831 22.3764ZM62.5831 15.8182C62.2337 15.8182 61.9332 15.6946 61.6818 15.4474C61.4304 15.196 61.3047 14.8935 61.3047 14.5398C61.3047 14.1903 61.4304 13.892 61.6818 13.6449C61.9332 13.3935 62.2337 13.2678 62.5831 13.2678C62.9325 13.2678 63.233 13.3935 63.4844 13.6449C63.7358 13.892 63.8615 14.1903 63.8615 14.5398C63.8615 14.7741 63.8018 14.9893 63.6825 15.1854C63.5675 15.3771 63.4141 15.5305 63.2223 15.6456C63.0305 15.7607 62.8175 15.8182 62.5831 15.8182ZM66.1211 21.4432V19.8452L71.7781 10.9091H73.0373V13.2614H72.2383L68.1921 19.6662V19.7685H75.9457V21.4432H66.1211ZM72.3278 24V20.9574L72.3406 20.2287V10.9091H74.2134V24H72.3278ZM82.7308 24.2173C81.7209 24.2131 80.858 23.9467 80.142 23.4183C79.4261 22.8899 78.8786 22.1207 78.4993 21.1108C78.12 20.1009 77.9304 18.8842 77.9304 17.4609C77.9304 16.0419 78.12 14.8295 78.4993 13.8239C78.8828 12.8182 79.4325 12.0511 80.1484 11.5227C80.8686 10.9943 81.7294 10.7301 82.7308 10.7301C83.7322 10.7301 84.5909 10.9964 85.3068 11.5291C86.0227 12.0575 86.5703 12.8246 86.9496 13.8303C87.3331 14.8317 87.5249 16.0419 87.5249 17.4609C87.5249 18.8885 87.3352 20.1072 86.956 21.1172C86.5767 22.1229 86.0291 22.892 85.3132 23.4247C84.5973 23.9531 83.7365 24.2173 82.7308 24.2173ZM82.7308 22.5107C83.6172 22.5107 84.3097 22.0781 84.8082 21.2131C85.3111 20.348 85.5625 19.0973 85.5625 17.4609C85.5625 16.3743 85.4474 15.456 85.2173 14.706C84.9915 13.9517 84.6655 13.3807 84.2393 12.9929C83.8175 12.6009 83.3146 12.4048 82.7308 12.4048C81.8487 12.4048 81.1563 12.8395 80.6534 13.7088C80.1506 14.5781 79.897 15.8288 79.8928 17.4609C79.8928 18.5518 80.0057 19.4744 80.2315 20.2287C80.4616 20.9787 80.7876 21.5476 81.2095 21.9354C81.6314 22.3189 82.1385 22.5107 82.7308 22.5107ZM91.0772 22.3764C90.7278 22.3764 90.4274 22.2528 90.176 22.0057C89.9245 21.7543 89.7988 21.4517 89.7988 21.098C89.7988 20.7486 89.9245 20.4503 90.176 20.2031C90.4274 19.9517 90.7278 19.826 91.0772 19.826C91.4267 19.826 91.7271 19.9517 91.9785 20.2031C92.2299 20.4503 92.3556 20.7486 92.3556 21.098C92.3556 21.3324 92.296 21.5476 92.1767 21.7436C92.0616 21.9354 91.9082 22.0888 91.7164 22.2038C91.5247 22.3189 91.3116 22.3764 91.0772 22.3764ZM91.0772 15.8182C90.7278 15.8182 90.4274 15.6946 90.176 15.4474C89.9245 15.196 89.7988 14.8935 89.7988 14.5398C89.7988 14.1903 89.9245 13.892 90.176 13.6449C90.4274 13.3935 90.7278 13.2678 91.0772 13.2678C91.4267 13.2678 91.7271 13.3935 91.9785 13.6449C92.2299 13.892 92.3556 14.1903 92.3556 14.5398C92.3556 14.7741 92.296 14.9893 92.1767 15.1854C92.0616 15.3771 91.9082 15.5305 91.7164 15.6456C91.5247 15.7607 91.3116 15.8182 91.0772 15.8182ZM99.4476 24.2173C98.4377 24.2131 97.5748 23.9467 96.8588 23.4183C96.1429 22.8899 95.5953 22.1207 95.2161 21.1108C94.8368 20.1009 94.6472 18.8842 94.6472 17.4609C94.6472 16.0419 94.8368 14.8295 95.2161 13.8239C95.5996 12.8182 96.1493 12.0511 96.8652 11.5227C97.5854 10.9943 98.4462 10.7301 99.4476 10.7301C100.449 10.7301 101.308 10.9964 102.024 11.5291C102.74 12.0575 103.287 12.8246 103.666 13.8303C104.05 14.8317 104.242 16.0419 104.242 17.4609C104.242 18.8885 104.052 20.1072 103.673 21.1172C103.294 22.1229 102.746 22.892 102.03 23.4247C101.314 23.9531 100.453 24.2173 99.4476 24.2173ZM99.4476 22.5107C100.334 22.5107 101.026 22.0781 101.525 21.2131C102.028 20.348 102.279 19.0973 102.279 17.4609C102.279 16.3743 102.164 15.456 101.934 14.706C101.708 13.9517 101.382 13.3807 100.956 12.9929C100.534 12.6009 100.031 12.4048 99.4476 12.4048C98.5655 12.4048 97.873 12.8395 97.3702 13.7088C96.8674 14.5781 96.6138 15.8288 96.6096 17.4609C96.6096 18.5518 96.7225 19.4744 96.9483 20.2287C97.1784 20.9787 97.5044 21.5476 97.9263 21.9354C98.3482 22.3189 98.8553 22.5107 99.4476 22.5107ZM111.067 24.2173C110.057 24.2131 109.194 23.9467 108.478 23.4183C107.762 22.8899 107.214 22.1207 106.835 21.1108C106.456 20.1009 106.266 18.8842 106.266 17.4609C106.266 16.0419 106.456 14.8295 106.835 13.8239C107.219 12.8182 107.768 12.0511 108.484 11.5227C109.205 10.9943 110.065 10.7301 111.067 10.7301C112.068 10.7301 112.927 10.9964 113.643 11.5291C114.359 12.0575 114.906 12.8246 115.286 13.8303C115.669 14.8317 115.861 16.0419 115.861 17.4609C115.861 18.8885 115.671 20.1072 115.292 21.1172C114.913 22.1229 114.365 22.892 113.649 23.4247C112.933 23.9531 112.072 24.2173 111.067 24.2173ZM111.067 22.5107C111.953 22.5107 112.646 22.0781 113.144 21.2131C113.647 20.348 113.898 19.0973 113.898 17.4609C113.898 16.3743 113.783 15.456 113.553 14.706C113.327 13.9517 113.001 13.3807 112.575 12.9929C112.153 12.6009 111.651 12.4048 111.067 12.4048C110.185 12.4048 109.492 12.8395 108.989 13.7088C108.487 14.5781 108.233 15.8288 108.229 17.4609C108.229 18.5518 108.342 19.4744 108.567 20.2287C108.798 20.9787 109.124 21.5476 109.545 21.9354C109.967 22.3189 110.474 22.5107 111.067 22.5107Z" fill="#202020"/>
<path d="M12 10H14V24H12V10ZM22 10H24V24H22V10Z" fill="white"/>
</g>
<defs>
<filter id="filter0_d_0_1" x="-1221" y="-12" width="1444" height="64" filterUnits="userSpaceOnUse" color-interpolation-filters="sRGB">
<feFlood flood-opacity="0" result="BackgroundImageFix"/>
<feColorMatrix in="SourceAlpha" type="matrix" values="0 0 0 0 0 0 0 0 0 0 0 0 0 0 0 0 0 0 127 0" result="hardAlpha"/>
<feOffset dy="2"/>
<feGaussianBlur stdDeviation="1"/>
<feComposite in2="hardAlpha" operator="out"/>
<feColorMatrix type="matrix" values="0 0 0 0 0 0 0 0 0 0 0 0 0 0 0 0 0 0 0.06 0"/>
<feBlend mode="normal" in2="BackgroundImageFix" result="effect1_dropShadow_0_1"/>
<feBlend mode="normal" in="SourceGraphic" in2="effect1_dropShadow_0_1" result="shape"/>
</filter>
<filter id="filter1_d_0_1" x="1" y="1" width="34" height="34" filterUnits="userSpaceOnUse" color-interpolation-filters="sRGB">
<feFlood flood-opacity="0" result="BackgroundImageFix"/>
<feColorMatrix in="SourceAlpha" type="matrix" values="0 0 0 0 0 0 0 0 0 0 0 0 0 0 0 0 0 0 127 0" result="hardAlpha"/>
<feOffset dy="1"/>
<feGaussianBlur stdDeviation="1"/>
<feComposite in2="hardAlpha" operator="out"/>
<feColorMatrix type="matrix" values="0 0 0 0 0 0 0 0 0 0 0 0 0 0 0 0 0 0 0.06 0"/>
<feBlend mode="normal" in2="BackgroundImageFix" result="effect1_dropShadow_0_1"/>
<feBlend mode="normal" in="SourceGraphic" in2="effect1_dropShadow_0_1" result="shape"/>
</filter>
<clipPath id="clip0_0_1">
<rect width="1673" height="1024" fill="white" transform="translate(-1452 -12)"/>
</clipPath>
</defs>
</svg>
